<svg xmlns="http://www.w3.org/2000/svg" width="1500" height="1500" viewBox="0 0 1500 1500">
<rect x="40" y="40" width="1420" height="1420" fill="#0b0b0b" stroke="#ff4f00" stroke-width="30"/>
<text x="750.0" y="330" font-family="Press Start 2P" font-weight="400" font-size="118" fill="#ffffff" text-anchor="middle" letter-spacing="0" >TICK TOCK</text>
<text x="750.0" y="500" font-family="Press Start 2P" font-weight="400" font-size="118" fill="#ff4f00" text-anchor="middle" letter-spacing="0" >NEXT BLOCK</text>
<rect x="685" y="1128" width="33.0" height="33.0" fill="#ff4f00"/>
<rect x="945" y="770" width="33.0" height="33.0" fill="#ff4f00"/>
<rect x="880" y="1062" width="33.0" height="33.0" fill="#ff4f00"/>
<rect x="652" y="672" width="33.0" height="33.0" fill="#ff4f00"/>
<rect x="750" y="640" width="33.0" height="33.0" fill="#ff4f00"/>
<rect x="945" y="965" width="33.0" height="33.0" fill="#ff4f00"/>
<rect x="588" y="1062" width="33.0" height="33.0" fill="#ff4f00"/>
<rect x="555" y="705" width="33.0" height="33.0" fill="#ff4f00"/>
<rect x="912" y="705" width="33.0" height="33.0" fill="#ff4f00"/>
<rect x="490" y="900" width="33.0" height="33.0" fill="#ff4f00"/>
<rect x="750" y="1128" width="33.0" height="33.0" fill="#ff4f00"/>
<rect x="848" y="1095" width="33.0" height="33.0" fill="#ff4f00"/>
<rect x="978" y="900" width="33.0" height="33.0" fill="#ff4f00"/>
<rect x="978" y="932" width="33.0" height="33.0" fill="#ff4f00"/>
<rect x="620" y="1095" width="33.0" height="33.0" fill="#ff4f00"/>
<rect x="848" y="672" width="33.0" height="33.0" fill="#ff4f00"/>
<rect x="490" y="868" width="33.0" height="33.0" fill="#ff4f00"/>
<rect x="522" y="802" width="33.0" height="33.0" fill="#ff4f00"/>
<rect x="522" y="998" width="33.0" height="33.0" fill="#ff4f00"/>
<rect x="815" y="1095" width="33.0" height="33.0" fill="#ff4f00"/>
<rect x="718" y="640" width="33.0" height="33.0" fill="#ff4f00"/>
<rect x="978" y="868" width="33.0" height="33.0" fill="#ff4f00"/>
<rect x="555" y="1062" width="33.0" height="33.0" fill="#ff4f00"/>
<rect x="912" y="1062" width="33.0" height="33.0" fill="#ff4f00"/>
<rect x="880" y="705" width="33.0" height="33.0" fill="#ff4f00"/>
<rect x="718" y="1128" width="33.0" height="33.0" fill="#ff4f00"/>
<rect x="588" y="705" width="33.0" height="33.0" fill="#ff4f00"/>
<rect x="620" y="672" width="33.0" height="33.0" fill="#ff4f00"/>
<rect x="945" y="802" width="33.0" height="33.0" fill="#ff4f00"/>
<rect x="945" y="998" width="33.0" height="33.0" fill="#ff4f00"/>
<rect x="782" y="640" width="33.0" height="33.0" fill="#ff4f00"/>
<rect x="652" y="1095" width="33.0" height="33.0" fill="#ff4f00"/>
<rect x="490" y="932" width="33.0" height="33.0" fill="#ff4f00"/>
<rect x="815" y="672" width="33.0" height="33.0" fill="#ff4f00"/>
<rect x="522" y="770" width="33.0" height="33.0" fill="#ff4f00"/>
<rect x="490" y="835" width="33.0" height="33.0" fill="#ff4f00"/>
<rect x="555" y="738" width="33.0" height="33.0" fill="#ff4f00"/>
<rect x="782" y="1128" width="33.0" height="33.0" fill="#ff4f00"/>
<rect x="912" y="738" width="33.0" height="33.0" fill="#ff4f00"/>
<rect x="978" y="835" width="33.0" height="33.0" fill="#ff4f00"/>
<rect x="555" y="1030" width="33.0" height="33.0" fill="#ff4f00"/>
<rect x="522" y="965" width="33.0" height="33.0" fill="#ff4f00"/>
<rect x="685" y="640" width="33.0" height="33.0" fill="#ff4f00"/>
<rect x="912" y="1030" width="33.0" height="33.0" fill="#ff4f00"/>
<rect x="750" y="1095" width="33.0" height="33.0" fill="#ffffff"/>
<rect x="945" y="900" width="33.0" height="33.0" fill="#ffffff"/>
<rect x="718" y="672" width="33.0" height="33.0" fill="#ffffff"/>
<rect x="750" y="672" width="33.0" height="33.0" fill="#ffffff"/>
<rect x="945" y="868" width="33.0" height="33.0" fill="#ffffff"/>
<rect x="522" y="900" width="33.0" height="33.0" fill="#ffffff"/>
<rect x="522" y="868" width="33.0" height="33.0" fill="#ffffff"/>
<rect x="718" y="1095" width="33.0" height="33.0" fill="#ffffff"/>
<rect x="750" y="900" width="33.0" height="33.0" fill="#ffffff"/>
<rect x="912" y="770" width="33.0" height="33.0" fill="#ffffff"/>
<rect x="718" y="868" width="33.0" height="33.0" fill="#ffffff"/>
<rect x="685" y="802" width="33.0" height="33.0" fill="#ffffff"/>
<rect x="750" y="868" width="33.0" height="33.0" fill="#ffffff"/>
<rect x="652" y="770" width="33.0" height="33.0" fill="#ffffff"/>
<rect x="782" y="835" width="33.0" height="33.0" fill="#ffffff"/>
<rect x="718" y="835" width="33.0" height="33.0" fill="#ffffff"/>
<rect x="815" y="835" width="33.0" height="33.0" fill="#ffffff"/>
<rect x="848" y="802" width="33.0" height="33.0" fill="#ffffff"/>
<rect x="652" y="738" width="33.0" height="33.0" fill="#ffffff"/>
<rect x="880" y="802" width="33.0" height="33.0" fill="#ffffff"/>
<rect x="718" y="900" width="33.0" height="33.0" fill="#ffffff"/>
<text x="750.0" y="1330" font-family="Press Start 2P" font-weight="400" font-size="48" fill="#ffffff" text-anchor="middle" letter-spacing="0" >frens.earth</text>

</svg>
